<?xml version="1.0" encoding="utf-8"?>
<!DOCTYPE svg PUBLIC "-//W3C//DTD SVG 1.1//EN" "http://www.w3.org/Graphics/SVG/1.1/DTD/svg11.dtd">
<svg xmlns="http://www.w3.org/2000/svg" xmlns:xlink="http://www.w3.org/1999/xlink" version="1.1" viewBox="0 0 512 512" enable-background="new 0 0 512 512" width="512px" height="512px">
  <g>
    <g>
      <path d="m467.7,146.6c-7-54.4-60.3-95.7-126-95.7-13.6,0-26.9,1.8-39.8,5.5-23.6-27.7-61.4-44.4-102.6-44.4-70,0-126.9,48.3-126.9,107.8 0,2.8 0.1,5.6 0.4,8.5-37.5,19.3-60.9,54-60.9,92.1 0,59.4 56.9,107.8 126.9,107.8 11.3,0 20.4-9.1 20.4-20.4 0-11.3-9.1-20.4-20.4-20.4-47.4,0-86-30-86-67 0-25.9 19.7-49.7 50.1-60.7 10.1-3.7 15.7-14.6 12.6-25-1.5-5.2-2.3-10-2.3-14.8 0-36.9 38.6-67 86-67 32.8,0 63.3,15.1 77.6,38.4 5.2,8.5 15.9,12 25.1,8.2 12.5-5.1 25.8-7.7 39.6-7.7 46.4,0 85,29.4 85.9,65.6 0.2,6.1 3.1,11.9 7.9,15.6 16.5,12.8 25.6,29.6 25.6,47.4 0,36.9-38.6,67-86,67-15.6,0-31-3.4-44.5-9.8-10.2-4.8-22.4-0.5-27.2,9.7-4.8,10.2-0.5,22.4 9.7,27.2 18.9,9 40.4,13.8 62,13.8 70,0 126.9-48.3 126.9-107.8 0.2-27.6-12.2-54-34.1-73.9z" fill="#FFFFFF"/>
      <path d="m240,169.5c-11.3,0-20.4,9.1-20.4,20.4v165.7l-24.4-23.8c-8.1-7.9-21-7.7-28.9,0.4-7.9,8.1-7.7,21 0.4,28.9l59.1,57.6c9.9,9.9 18.6,10 28.5,0l59.1-57.6c8.1-7.9 8.2-20.8 0.4-28.9-7.9-8.1-20.8-8.2-28.9-0.4l-24.4,23.8v-165.7c-0.1-11.3-9.2-20.4-20.5-20.4z" fill="#FFFFFF"/>
      <path d="m406.5,367.4c-11.3,0-20.4,9.1-20.4,20.4v73.4h-291.4v-73.4c1.42109e-14-11.3-9.1-20.4-20.4-20.4-11.3,0-20.4,9.1-20.4,20.4v93.8c0,11.3 9.1,20.4 20.4,20.4h332.2c11.3,0 20.4-9.1 20.4-20.4v-93.8c0-11.3-9.2-20.4-20.4-20.4z" fill="#FFFFFF"/>
    </g>
  </g>
</svg>
