<?xml version="1.0" encoding="iso-8859-1"?>
<!-- Generator: Adobe Illustrator 18.1.1, SVG Export Plug-In . SVG Version: 6.00 Build 0)  -->
<svg version="1.1" id="Capa_1" xmlns="http://www.w3.org/2000/svg" xmlns:xlink="http://www.w3.org/1999/xlink" x="0px" y="0px"
	 viewBox="0 0 371.096 371.096" style="enable-background:new 0 0 371.096 371.096;" xml:space="preserve" fill="#ffffff">
<g>
	<g id="Layer_5_40_">
		<g>
			<path d="M201.646,48.954h-7.887c0,0-1.438,0.078-1.438-1.033c0-2.073,0-8.292,0-8.292c0-3.741-3.032-6.773-6.772-6.773
				s-6.772,3.032-6.772,6.773c0,0,0,5.822,0,7.763c0,1.64-1.684,1.562-1.684,1.562h-7.642c-3.74,0-6.772,3.032-6.772,6.772
				c0,3.74,3.032,6.772,6.772,6.772h7.853c0,0,1.472-0.134,1.472,1.454c0,1.967,0,7.872,0,7.872c0,3.74,3.032,6.772,6.772,6.772
				c3.74,0,6.772-3.032,6.772-6.772c0,0,0-5.983,0-7.978c0-1.323,1.703-1.348,1.703-1.348h7.623c3.74,0,6.772-3.032,6.772-6.772
				S205.386,48.954,201.646,48.954z"/>
			<g>
				<path d="M208.777,273.318c-0.776-1.875-2.938-5.019-8.694-5.019c-3.112,0-7.242,0.847-10.885,1.595
					c-1.263,0.259-2.948,0.605-3.677,0.705c-0.719-0.088-2.372-0.398-3.611-0.63c-3.53-0.663-7.532-1.414-10.585-1.414
					c-5.868,0-8.05,3.151-8.828,5.03c-0.774,1.87-1.467,5.613,2.595,9.675c7.534,7.534,14.417,11.354,20.457,11.354
					c7.405,0,18.968-9.866,20.457-11.354C210.244,279.021,209.562,275.211,208.777,273.318z"/>
				<g>
					<path d="M135.539,189.798c-11.845-3.356-18.161-0.94-22.773,0.823c-2.929,1.121-3.866,1.417-5.972,0.821
						c-3.718-1.053-7.589,1.107-8.643,4.827c-1.054,3.719,1.058,7.78,4.827,8.643c3.873,0.887,7.003,0.881,9.502,0.447
						c1.883-0.647,1.723,0.514,1.782,0.966c0.885,6.778,7.463,11.886,15.711,11.886c5.607,0,10.158-2.597,13.235-6.007
						c1.176-1.304,1.896-0.64,1.912-0.625c1.359,1.313,2.193,1.222,3.944,1.222c1.832,0,3.661-0.714,5.034-2.135
						c2.687-2.78,2.611-7.211-0.168-9.898C150.573,197.523,145.501,192.621,135.539,189.798z"/>
					<path d="M272.944,196.269c-1.054-3.72-4.923-5.882-8.643-4.827c-2.106,0.595-3.043,0.3-5.972-0.821
						c-4.611-1.764-10.927-4.18-22.772-0.823c-9.963,2.823-15.035,7.726-18.391,10.969c-2.78,2.687-2.855,7.118-0.168,9.898
						c1.374,1.421,3.203,2.135,5.034,2.135c1.751,0,2.62,0.064,3.979-1.25c0.016-0.015,0.916-0.589,1.933,0.723
						c2.8,3.608,7.608,5.937,13.179,5.937c8.191,0,14.736-5.038,15.693-11.746c0.071-0.497,0.298-1.628,1.317-1.21
						c2.969,0.847,5.354,0.969,9.985-0.343C271.837,203.858,273.998,199.988,272.944,196.269z"/>
				</g>
			</g>
			<path d="M299.733,103.934c-4.058-5.968-8.551-11.426-13.465-16.381c-0.86-0.867-2.967-2.903-1.812-6.316l5.366-24.995
				c1.746-8.13-2.902-16.997-10.581-20.186L197.173,1.97C194.114,0.699,190.184,0,186.108,0c-4.017,0-7.893,0.683-10.914,1.921
				L91.9,36.081c-7.707,3.161-12.374,12.017-10.625,20.16l5.893,27.455c0.884,2.704-0.802,4.858-1.548,5.635
				c-4.273,4.448-8.26,9.279-11.945,14.506c-20.063,28.456-30.668,68.316-30.668,115.274c0,59.741,5.729,98.466,18.03,121.869
				c10.948,20.829,26.899,30.117,51.721,30.116c10.365,0,21.358-1.543,32.996-3.176c12.821-1.799,26.079-3.659,39.794-3.659
				c13.459,0,26.479,1.719,39.071,3.381c11.471,1.514,22.305,2.945,32.545,2.945c16.968,0,38.271-3.391,52.518-29.834
				c12.559-23.309,18.408-61.962,18.408-121.642C328.09,170.354,318.549,131.603,299.733,103.934z M97.212,49.034l83.294-34.16
				c1.335-0.547,3.429-0.875,5.601-0.875c2.21,0,4.34,0.336,5.696,0.899l82.068,34.086c1.451,0.603,2.593,2.781,2.263,4.317
				l-9.915,46.185c-0.266,1.237-1.717,2.271-2.989,2.089l-67.799-9.482c-2.682-0.375-6.192-0.582-9.883-0.582
				s-7.201,0.207-9.883,0.582l-67.801,9.482c-1.268,0.183-2.723-0.851-2.988-2.089l-9.914-46.185
				C94.635,51.779,95.77,49.625,97.212,49.034z M185.548,334.241c-11.557,0-36.183-11.55-59.059-32.957
				c-15.025-14.06-40.232-43.021-40.232-79.012c0-10.072,0.869-24.139,4.482-38.909c1.74-5.614,3.893-11.678,10.145-17.255
				c5.629-5.021,14.368-9.862,22.297-14.529c4.076-2.399,8.291-4.88,12.641-7.321c13.562-7.611,22.729-21.358,25.729-21.358
				c3.684,0,11.67,6.735,12.846,7.874c14.462,14.005,28.294,24.812,40.839,32.998c19.444,12.687,45.298,21.726,65.521,28.173
				c1.234,0.394,2.111,4.204,2.747,8.669c1.022,8.178,1.336,15.635,1.336,21.659C284.839,283.862,209.874,334.241,185.548,334.241z"
				/>
		</g>
	</g>
</g>
<g>
</g>
<g>
</g>
<g>
</g>
<g>
</g>
<g>
</g>
<g>
</g>
<g>
</g>
<g>
</g>
<g>
</g>
<g>
</g>
<g>
</g>
<g>
</g>
<g>
</g>
<g>
</g>
<g>
</g>
</svg>
